# AST/ASF file generated using VICON BodyLanguage
# -----------------------------------------------
:version 1.10
:name VICON
:units
  mass 1.0
  length 0.45
  angle deg
:documentation
   .ast/.asf automatically generated from VICON data using
   VICON BodyBuilder and BodyLanguage model FoxedUp or BRILLIANT.MOD
:root
   order TX TY TZ RX RY RZ
   axis XYZ
   position 0 0 0  
   orientation 0 0 0 
:bonedata
  begin
     id 1 
     name lhipjoint
     direction 0.690799 -0.707083 0.151096 
     length 2.54797 
     axis 0 0 0  XYZ
  end
  begin
     id 2 
     name lfemur
     direction 0.34202 -0.939693 0  
     length 7.21646  
     axis 0 0 20  XYZ
    dof rx ry rz
    limits (-160.0 20.0)
           (-70.0 70.0)
           (-60.0 70.0)
  end
  begin
     id 3 
     name ltibia
     direction 0.34202 -0.939693 0   
     length 8.16759   
     axis 0 0 20   XYZ
    dof rx
    limits (-10.0 170.0)
  end
  begin
     id 4 
     name lfoot
     direction 0.0487203 -0.133858 0.989802   
     length 1.93375   
     axis -90 7.62852e-016 20   XYZ
    dof rx rz
    limits (-45.0 90.0)
           (-70.0 20.0)
  end
  begin
     id 5 
     name ltoes
     direction 1.53453e-011 -4.21783e-011 1   
     length 0.979747   
     axis -90 7.62852e-016 20   XYZ
    dof rx
    limits (-90.0 20.0)
  end
  begin
     id 6 
     name rhipjoint
     direction -0.694693 -0.703425 0.150315   
     length 2.56122  
     axis 0 0 0  XYZ 
  end
  begin
     id 7 
     name rfemur
     direction -0.34202 -0.939693 0   
     length 7.36786   
     axis 0 0 -20   XYZ
    dof rx ry rz
    limits (-160.0 20.0)
           (-70.0 70.0)
           (-70.0 60.0)
  end
  begin
     id 8 
     name rtibia
     direction -0.34202 -0.939693 0   
     length 8.07288   
     axis 0 0 -20   XYZ
    dof rx
    limits (-10.0 170.0)
 end
 begin
     id 9 
     name rfoot
     direction -0.0428397 -0.117701 0.992125   
     length 1.88295  
     axis -90 -7.62852e-016 -20   XYZ
    dof rx rz
    limits (-45.0 90.0)
           (-20.0 70.0)
  end
  begin
     id 10 
     name rtoes
     direction -1.53456e-011 -4.2187e-011 1   
     length 0.955578   
     axis -90 -7.62852e-016 -20   XYZ
    dof rx
    limits (-90.0 20.0)
  end
  begin
     id 11 
     name lowerback
     direction 0.0288145 0.999398 -0.0193241   
     length 1.92149   
     axis 0 0 0   XYZ
    dof rx ry rz
    limits (-20.0 45.0)
           (-30.0 30.0)
           (-30.0 30.0)
  end
  begin
     id 12 
     name upperback
     direction 0.0233784 0.998099 0.0570278   
     length 1.90435   
     axis 0 0 0   XYZ
    dof rx ry rz
    limits (-20.0 45.0)
           (-30.0 30.0)
           (-30.0 30.0)
  end
  begin
     id 13 
     name thorax
     direction 0.0096694 0.997833 0.0650817   
     length 1.9111   
     axis 0 0 0   XYZ
    dof rx ry rz
    limits (-20.0 45.0)
           (-30.0 30.0)
           (-30.0 30.0)
  end
  begin
     id 14 
     name lowerneck
     direction 0.00516803 0.999916 0.0118722   
     length 1.74664   
     axis 0 0 0   XYZ
    dof rx ry rz
    limits (-20.0 45.0)
           (-30.0 30.0)
           (-30.0 30.0)
  end
  begin
     id 15 
     name upperneck
     direction -0.0510851 0.996117 -0.071696   
     length 1.68498   
     axis 0 0 0   XYZ
    dof rx ry rz
    limits (-20.0 45.0)
           (-30.0 30.0)
           (-30.0 30.0)
  end
  begin
     id 16
     name head
     direction -0.019188 0.999436 -0.0275702  
     length 1.83483  
     axis 0 0 0   XYZ
    dof rx ry rz
    limits (-20.0 45.0)
           (-30.0 30.0)
           (-30.0 30.0)
  end
  begin
     id 17 
     name lclavicle
     direction 0.967006 0.248456 -0.0562957  
     length 3.39395  
     axis 0 0 0   XYZ
    dof ry rz
    limits (-20.0 10.0)
           (0.0 20.0)
  end
  begin
     id 18 
     name lhumerus
     direction 1 -4.48962e-011 -5.62711e-019   
     length 5.24318   
     axis 180 -30 -90   XYZ
    dof rx ry rz
    limits (-60.0 90.0)
           (-90.0 90.0)
           (-90.0 90.0)
  end
  begin
     id 19
     name lradius
     direction 1 -4.48966e-011 7.90625e-027   
     length 2.98999   
     axis 180 -30 -90   XYZ
    dof rx
    limits (-10.0 170.0)
  end
  begin
     id 20
     name lwrist
     direction 1 -4.48959e-011 1.61068e-026   
     length 1.49499   
     axis -9.31229e-015 90 90   XYZ
    dof ry
    limits (-180.0 0.0)
 end
  begin
     id 21 
     name lhand
     direction 1 -4.49017e-011 3.22136e-026   
     length 0.726745   
     axis -2.0555e-014 90 90   XYZ
    dof rx rz
    limits (-90.0 90.0)
           (-45.0 45.0)
  end
  begin
     id 22 
     name lfingers
     direction 1 -4.4898e-011 6.44272e-026   
     length 0.58592   
     axis -4.11101e-014 90 90   XYZ
    dof rx
    limits (0.0 90.0)
  end
  begin
     id 23
     name lthumb
     direction 0.707107 -6.34922e-011 0.707107   
     length 0.841268   
     axis -90 45 2.85299e-015   XYZ
    dof rx rz
    limits (-45.0 45.0)
           (-45.0 45.0)
  end
  begin
     id 24 
     name rclavicle
     direction -0.972232 0.230238 0.0419005   
     length 3.40416  
     axis 0 0 0   XYZ 
    dof ry rz
    limits (-10.0 20.0)
           (-20.0 0.0)
  end
  begin
     id 25 
     name rhumerus
     direction -1 -4.48976e-011 2.48487e-027  
     length 5.37045   
     axis 180 30 90   XYZ
    dof rx ry rz
    limits (-90.0 60.0)
           (-90.0 90.0)
           (-90.0 90.0)
  end
  begin
     id 26 
     name rradius
     direction -1 -4.48942e-011 7.87951e-027   
     length 2.92792   
     axis 180 30 90   XYZ
    dof rx
    limits (-10.0 170.0)
  end
  begin
     id 27 
     name rwrist
     direction -1 -4.48969e-011 1.61068e-026   
     length 1.46396   
     axis -9.31229e-015 -90 -90   XYZ
    dof ry
    limits (-180.0 0.0)
  end
  begin
     id 28
     name rhand
     direction -1 -4.49043e-011 3.22136e-026   
     length 0.784497   
     axis -2.0555e-014 -90 -90   XYZ
    dof rx rz
    limits (-90.0 90.0)
           (-45.0 45.0)
  end
  begin
     id 29
     name rfingers
     direction -1 -4.48823e-011 6.44272e-026   
     length 0.632482   
     axis -4.11101e-014 -90 -90   XYZ
    dof rx
    limits (0.0 90.0)
  end
  begin
     id 30
     name rthumb
     direction -0.707107 -6.34923e-011 0.707107   
     length 0.908121   
     axis -90 -45 -2.85299e-015   XYZ
    dof rx rz
    limits (-45.0 45.0)
           (-45.0 45.0)
  end
:hierarchy
  begin
    root lhipjoint rhipjoint lowerback
    lhipjoint lfemur
    lfemur ltibia
    ltibia lfoot
    lfoot ltoes
    rhipjoint rfemur
    rfemur rtibia
    rtibia rfoot
    rfoot rtoes
    lowerback upperback
    upperback thorax
    thorax lowerneck lclavicle rclavicle
    lowerneck upperneck
    upperneck head
    lclavicle lhumerus
    lhumerus lradius
    lradius lwrist
    lwrist lhand lthumb
    lhand lfingers
    rclavicle rhumerus
    rhumerus rradius
    rradius rwrist
    rwrist rhand rthumb
    rhand rfingers
  end

#!OML:ASF E:\Style6\Style6.ASF
:FULLY-SPECIFIED
:DEGREES
367
root 0.612994 17.8649 -0.847596 32.1015 -2.62461 5.17685
lowerback 9.0992 0.0929958 5.86728
upperback 0.906898 1.0355 7.36177
thorax -4.21023 0.463777 4.29212
lowerneck 4.52654 12.1673 6.99991
upperneck 18.5853 19.8709 -19.8426
head 7.71883 9.16402 -6.34971
rclavicle 1.27222e-014 4.29375e-014
rhumerus 3.36684 -4.85416 -70.8054
rradius 29.5848
rwrist 35.8672
rhand -0.809068 7.112
rfingers 7.12502
rthumb 24.8152 -21.2978
lclavicle 1.27222e-014 4.29375e-014
lhumerus 97.0872 -41.2817 6.35069
lradius 34.6046
lwrist -1.64527
lhand 2.79791 15.9968
lfingers 7.12502
lthumb 28.2674 43.8842
rfemur -53.186 -4.87539 13.4545
rtibia 28.7538
rfoot -1.98707 -8.29591
rtoes -12.4336
lfemur -47.1455 4.37674 -28.2375
ltibia 22.1689
lfoot -1.70237 -0.57422
ltoes -17.2666
368
root 0.608166 17.8656 -0.851969 32.0689 -2.68929 5.15146
lowerback 9.17828 0.0683247 5.84371
upperback 0.904507 1.01132 7.40637
thorax -4.25778 0.452048 4.357
lowerneck 4.50918 12.1603 6.98778
upperneck 18.8093 19.8777 -19.7391
head 7.7857 9.15672 -6.31332
rclavicle 0 1.90833e-014
rhumerus 3.47217 -4.79129 -70.8314
rradius 29.5826
rwrist 35.7888
rhand -0.913658 7.0651
rfingers 7.12502
rthumb 24.715 -21.3585
lclavicle 0 1.90833e-014
lhumerus 96.5249 -41.2978 7.36581
lradius 34.4086
lwrist -1.56651
lhand 2.78852 16.0524
lfingers 7.12502
lthumb 28.2585 43.9412
rfemur -53.2105 -4.83402 13.4818
rtibia 28.8194
rfoot -2.03264 -8.2391
rtoes -12.0326
lfemur -47.1216 4.45808 -28.2389
ltibia 22.1506
lfoot -1.69086 -0.603863
ltoes -17.4138
369
root 0.602618 17.862 -0.857085 32.0813 -2.91854 5.25546
lowerback 9.23284 0.082214 5.62913
upperback 0.891797 1.01326 7.36947
thorax -4.30459 0.45612 4.43849
lowerneck 4.53046 12.13 7.11525
upperneck 19.0203 19.8709 -19.7399
head 7.86507 9.15013 -6.33867
rclavicle -1.90833e-014 2.70347e-014
rhumerus 3.56131 -4.69681 -70.9018
rradius 29.5945
rwrist 35.6961
rhand -0.917432 6.89281
rfingers 7.12502
rthumb 24.7113 -21.5313
lclavicle -1.90833e-014 2.70347e-014
lhumerus 96.0836 -41.2912 8.22099
lradius 34.2046
lwrist -1.55263
lhand 2.57971 16.169
lfingers 7.12502
lthumb 28.0589 44.0907
rfemur -53.3496 -4.75088 13.3114
rtibia 28.9134
rfoot -2.06568 -8.16799
rtoes -11.7024
lfemur -47.1363 4.55477 -28.4261
ltibia 22.1059
lfoot -1.68524 -0.551532
ltoes -17.7704
370
root 0.599324 17.8546 -0.863594 32.1809 -3.18337 5.4238
lowerback 9.1922 0.107005 5.41928
upperback 0.872224 1.01779 7.27584
thorax -4.30391 0.461405 4.45554
lowerneck 4.54552 12.0982 7.16794
upperneck 19.165 19.8238 -19.6221
head 7.89544 9.12797 -6.31498
rclavicle -1.90833e-014 7.95139e-015
rhumerus 3.67637 -4.73468 -71.0188
rradius 29.6151
rwrist 35.7449
rhand -0.787728 6.91033
rfingers 7.12502
rthumb 24.8357 -21.4967
lclavicle -1.90833e-014 7.95139e-015
lhumerus 95.6025 -41.2826 9.09683
lradius 34.036
lwrist -1.66783
lhand 2.46567 16.1346
lfingers 7.12502
lthumb 27.9498 44.0741
rfemur -53.6027 -4.71356 13.0849
rtibia 28.9995
rfoot -2.04275 -8.07111
rtoes -11.8001
lfemur -47.2535 4.59486 -28.6752
ltibia 22.0744
lfoot -1.6462 -0.46851
ltoes -17.8463
371
root 0.596028 17.8499 -0.869455 32.2892 -3.33204 5.56049
lowerback 9.06805 0.106411 5.29676
upperback 0.879036 0.988928 7.23019
thorax -4.22684 0.449704 4.47818
lowerneck 4.4447 12.0767 7.07826
upperneck 19.3324 19.7776 -19.4173
head 7.9305 9.09268 -6.23088
rclavicle 4.77083e-015 4.92986e-014
rhumerus 3.81174 -4.73606 -71.072
rradius 29.6546
rwrist 35.7031
rhand -0.80419 7.00943
rfingers 7.12502
rthumb 24.8199 -21.3997
lclavicle 4.77083e-015 4.92986e-014
lhumerus 95.135 -41.1714 9.9181
lradius 33.9276
lwrist -1.66552
lhand 2.53979 16.1209
lfingers 7.12502
lthumb 28.0207 44.0489
rfemur -53.8268 -4.70873 12.9165
rtibia 29.0642
rfoot -2.00155 -8.05719
rtoes -11.8957
lfemur -47.3844 4.64289 -28.9017
ltibia 22.0621
lfoot -1.63206 -0.488766
ltoes -17.9287
372
root 0.59268 17.8502 -0.873119 32.3294 -3.34984 5.49602
lowerback 8.96917 0.0733483 5.38569
upperback 0.917591 0.941849 7.27766
thorax -4.12845 0.42597 4.4835
lowerneck 4.42773 12.0605 7.05271
upperneck 19.443 19.7544 -19.3398
head 7.95604 9.07558 -6.20338
rclavicle -9.54166e-015 -3.65764e-014
rhumerus 3.97944 -4.63233 -71.1054
rradius 29.6825
rwrist 35.5824
rhand -0.814124 6.94556
rfingers 7.12502
rthumb 24.8104 -21.4649
lclavicle -9.54166e-015 -3.65764e-014
lhumerus 94.7515 -40.9571 10.563
lradius 33.8164
lwrist -1.44569
lhand 2.37128 16.251
lfingers 7.12502
lthumb 27.8596 44.2052
rfemur -53.9139 -4.68474 13.0128
rtibia 29.09
rfoot -1.88491 -8.0162
rtoes -12.914
lfemur -47.4277 4.66755 -28.8258
ltibia 22.0581
lfoot -1.6318 -0.459338
ltoes -17.6714
373
root 0.588359 17.8515 -0.877113 32.3062 -3.40719 5.43278
lowerback 8.95353 0.0669366 5.42578
upperback 0.961644 0.933546 7.33385
thorax -4.0735 0.42196 4.52139
lowerneck 4.40202 12.0336 6.96556
upperneck 19.5931 19.7069 -19.1834
head 7.97775 9.04416 -6.14202
rclavicle -1.90833e-014 6.04305e-014
rhumerus 4.10545 -4.45454 -71.063
rradius 29.7411
rwrist 35.3769
rhand -0.75548 6.82839
rfingers 7.12502
rthumb 24.8666 -21.5743
lclavicle -1.90833e-014 6.04305e-014
lhumerus 94.3983 -40.7982 11.29
lradius 33.6567
lwrist -1.36713
lhand 2.03918 16.5274
lfingers 7.12502
lthumb 27.5421 44.5326
rfemur -53.9098 -4.61769 13.0773
rtibia 29.086
rfoot -1.86533 -7.97855
rtoes -13.2511
lfemur -47.4014 4.73067 -28.7653
ltibia 22.0392
lfoot -1.60147 -0.416729
ltoes -17.6911
